<svg id="visual" viewBox="0 0 1245 1299" width="1245" height="1299" xmlns="http://www.w3.org/2000/svg" xmlns:xlink="http://www.w3.org/1999/xlink" version="1.1"><g stroke-width="1" stroke-linejoin="bevel"><path d="M593.5 751.4L868.8 745.4L629.5 503.6Z" fill="#cecece" stroke="#bababa"></path><path d="M868.8 745.4L980.8 529.6L629.5 503.6Z" fill="#d0d0d0" stroke="#bababa"></path><path d="M929.8 269.8L640.5 313.8L629.5 503.6Z" fill="#d0d0d0" stroke="#bababa"></path><path d="M629.5 503.6L308.3 488.6L593.5 751.4Z" fill="#d3d3d3" stroke="#bababa"></path><path d="M593.5 751.4L646.5 1041.2L868.8 745.4Z" fill="#dbdbdb" stroke="#bababa"></path><path d="M980.8 529.6L929.8 269.8L629.5 503.6Z" fill="#cfcfcf" stroke="#bababa"></path><path d="M640.5 313.8L308.3 488.6L629.5 503.6Z" fill="#d8d8d8" stroke="#bababa"></path><path d="M593.5 751.4L330.3 1001.2L646.5 1041.2Z" fill="#d7d7d7" stroke="#bababa"></path><path d="M646.5 1041.2L942.8 1056.2L868.8 745.4Z" fill="#d3d3d3" stroke="#bababa"></path><path d="M868.8 745.4L1245 730.4L980.8 529.6Z" fill="#d5d5d5" stroke="#bababa"></path><path d="M308.3 488.6L246.3 724.4L593.5 751.4Z" fill="#dbdbdb" stroke="#bababa"></path><path d="M942.8 1056.2L1245 730.4L868.8 745.4Z" fill="#dadada" stroke="#bababa"></path><path d="M980.8 529.6L1245 262.8L929.8 269.8Z" fill="#d2d2d2" stroke="#bababa"></path><path d="M1245 730.4L1245 554.6L980.8 529.6Z" fill="#d0d0d0" stroke="#bababa"></path><path d="M246.3 724.4L330.3 1001.2L593.5 751.4Z" fill="#d0d0d0" stroke="#bababa"></path><path d="M640.5 313.8L345.3 252.8L308.3 488.6Z" fill="#cecece" stroke="#bababa"></path><path d="M0 551.6L0 718.4L246.3 724.4Z" fill="#d5d5d5" stroke="#bababa"></path><path d="M612.5 0L345.3 252.8L640.5 313.8Z" fill="#d8d8d8" stroke="#bababa"></path><path d="M1245 554.6L1245 262.8L980.8 529.6Z" fill="#d4d4d4" stroke="#bababa"></path><path d="M929.8 269.8L612.5 0L640.5 313.8Z" fill="#d5d5d5" stroke="#bababa"></path><path d="M985.8 0L612.5 0L929.8 269.8Z" fill="#dbdbdb" stroke="#bababa"></path><path d="M942.8 1056.2L1245 1048.2L1245 730.4Z" fill="#d8d8d8" stroke="#bababa"></path><path d="M378.3 1299L601.5 1299L646.5 1041.2Z" fill="#d7d7d7" stroke="#bababa"></path><path d="M646.5 1041.2L601.5 1299L942.8 1056.2Z" fill="#cecece" stroke="#bababa"></path><path d="M942.8 1056.2L983.8 1299L1245 1048.2Z" fill="#d4d4d4" stroke="#bababa"></path><path d="M1245 262.8L985.8 0L929.8 269.8Z" fill="#d0d0d0" stroke="#bababa"></path><path d="M601.5 1299L983.8 1299L942.8 1056.2Z" fill="#cecece" stroke="#bababa"></path><path d="M246.3 724.4L0 1085.2L330.3 1001.2Z" fill="#d8d8d8" stroke="#bababa"></path><path d="M330.3 1001.2L378.3 1299L646.5 1041.2Z" fill="#d7d7d7" stroke="#bababa"></path><path d="M0 551.6L246.3 724.4L308.3 488.6Z" fill="#d8d8d8" stroke="#bababa"></path><path d="M0 234.8L308.3 488.6L345.3 252.8Z" fill="#d7d7d7" stroke="#bababa"></path><path d="M0 234.8L0 551.6L308.3 488.6Z" fill="#d4d4d4" stroke="#bababa"></path><path d="M0 1085.2L378.3 1299L330.3 1001.2Z" fill="#d3d3d3" stroke="#bababa"></path><path d="M612.5 0L326.3 0L345.3 252.8Z" fill="#d3d3d3" stroke="#bababa"></path><path d="M1245 262.8L1245 0L985.8 0Z" fill="#cecece" stroke="#bababa"></path><path d="M983.8 1299L1245 1299L1245 1048.2Z" fill="#dadada" stroke="#bababa"></path><path d="M326.3 0L0 234.8L345.3 252.8Z" fill="#dadada" stroke="#bababa"></path><path d="M0 718.4L0 1085.2L246.3 724.4Z" fill="#d2d2d2" stroke="#bababa"></path><path d="M326.3 0L0 0L0 234.8Z" fill="#d8d8d8" stroke="#bababa"></path><path d="M0 1085.2L0 1299L378.3 1299Z" fill="#d2d2d2" stroke="#bababa"></path></g></svg>