<svg id="visual" viewBox="0 0 1245 380" width="1245" height="380" xmlns="http://www.w3.org/2000/svg" xmlns:xlink="http://www.w3.org/1999/xlink" version="1.1"><rect x="0" y="0" width="1245" height="380" fill="#AAAAAA"></rect><path d="M560 380L576.8 371C593.7 362 627.3 344 654.2 325.8C681 307.7 701 289.3 768.7 271.2C836.3 253 951.7 235 959.5 217C967.3 199 867.7 181 847 163C826.3 145 884.7 127 880.2 108.8C875.7 90.7 808.3 72.3 787.5 54.2C766.7 36 792.3 18 805.2 9L818 0L1245 0L1245 9C1245 18 1245 36 1245 54.2C1245 72.3 1245 90.7 1245 108.8C1245 127 1245 145 1245 163C1245 181 1245 199 1245 217C1245 235 1245 253 1245 271.2C1245 289.3 1245 307.7 1245 325.8C1245 344 1245 362 1245 371L1245 380Z" fill="#b7999c" stroke-linecap="round" stroke-linejoin="miter"></path></svg>